<svg xmlns="http://www.w3.org/2000/svg" width="356" height="182" fill="none" viewBox="0 0 356 182"><path fill="#fff" d="M110.099 0L356 0L245.739 182H0L110.099 0Z"/><path fill="#36495E" d="M121.5 132.2L132.5 113.2L143.5 132.2H161L132.5 82.9L104 132.2H121.5Z"/><path fill="url(#paint0_linear)" d="M132.5 82.9V113.2L143.5 132.2H161L132.5 82.9Z"/><path fill="#36495E" d="M200.5 132.2L189.5 113.2L178.5 132.2H161L189.5 82.9L218 132.2H200.5Z"/><path fill="url(#paint1_linear)" d="M189.5 82.9V113.2L178.5 132.2H161L189.5 82.9Z"/><path fill="url(#paint2_linear)" d="M189.5 50L161 99.3L132.5 50L85 132.2H104L132.5 82.9L161 132.2L189.5 82.9L218 132.2H237L189.5 50Z"/><defs><linearGradient id="paint0_linear" x1="146.762" x2="146.762" y1="132.244" y2="82.871" gradientUnits="userSpaceOnUse"><stop stop-color="#36495E"/><stop offset="1" stop-color="#0A1C33"/></linearGradient><linearGradient id="paint1_linear" x1="175.267" x2="175.267" y1="132.244" y2="82.871" gradientUnits="userSpaceOnUse"><stop stop-color="#36495E"/><stop offset="1" stop-color="#0A1C33"/></linearGradient><linearGradient id="paint2_linear" x1="161.014" x2="161.014" y1="132.244" y2="49.956" gradientUnits="userSpaceOnUse"><stop offset=".2" stop-color="#41B782"/><stop offset="1" stop-color="#86D169"/></linearGradient></defs></svg>